#!OML:ASF H:\Dans Jumps\Project 1\Capture day 1\Session 1\subject.ASF
:FULLY-SPECIFIED
:DEGREES
483
root 0.28456 17.7521 -0.899357 8.02917 0.445565 -1.36201
lowerback -3.89238 -0.630374 0.139451
upperback 2.36837 -0.909981 1.38446
thorax 4.6504 -0.470797 1.28129
lowerneck -11.8639 0.227188 -1.88993
upperneck 35.6351 0.548008 0.819382
head 14.14 0.0880908 0.750129
rclavicle 7.55382e-015 -4.37326e-015
rhumerus -25.8787 -15.5861 -80.6151
rradius 23.4055
rwrist 36.3558
rhand -22.6038 -27.3183
rfingers 7.12502
rthumb 3.82573 -57.2637
lclavicle 7.55382e-015 -4.37326e-015
lhumerus -23.3327 -3.10261 90.0084
lradius 19.4803
lwrist 11.9221
lhand -25.0036 -7.40256
lfingers 7.12502
lthumb 1.50806 22.5719
rfemur -11.9984 -2.77572 20.619
rtibia 20.6316
rfoot -14.7953 1.33042
rtoes 18.3111
lfemur -8.48943 7.35577 -17.7542
ltibia 16.6549
lfoot -11.1703 6.76415
ltoes 2.55093
484
root 0.286736 17.7514 -0.90317 7.99092 0.428662 -1.35887
lowerback -3.89409 -0.633293 0.134772
upperback 2.37065 -0.913401 1.37857
thorax 4.65379 -0.472555 1.27753
lowerneck -11.8744 0.228685 -1.88751
upperneck 35.6615 0.545909 0.829461
head 14.1544 0.0884868 0.753721
rclavicle -4.96962e-016 -7.7526e-015
rhumerus -25.9215 -15.6049 -80.5756
rradius 23.4002
rwrist 36.3327
rhand -22.6034 -27.2946
rfingers 7.12502
rthumb 3.82608 -57.24
lclavicle -4.96962e-016 -7.7526e-015
lhumerus -23.3665 -2.99688 89.975
lradius 19.3902
lwrist 11.7129
lhand -24.9831 -7.36654
lfingers 7.12502
lthumb 1.52793 22.6077
rfemur -11.9775 -2.75983 20.6036
rtibia 20.6454
rfoot -14.799 1.33385
rtoes 18.3254
lfemur -8.45864 7.36492 -17.7605
ltibia 16.6573
lfoot -11.1854 6.77339
ltoes 2.42642
485
root 0.288868 17.7507 -0.907064 7.95473 0.416045 -1.36049
lowerback -3.89626 -0.637288 0.133946
upperback 2.3725 -0.918581 1.37491
thorax 4.65701 -0.475101 1.27377
lowerneck -11.8825 0.231595 -1.88471
upperneck 35.6862 0.546816 0.836626
head 14.1675 0.0898634 0.756497
rclavicle -1.1281e-014 4.77083e-015
rhumerus -25.9696 -15.5951 -80.5417
rradius 23.4084
rwrist 36.2841
rhand -22.5973 -27.2673
rfingers 7.12502
rthumb 3.83198 -57.2126
lclavicle -1.1281e-014 4.77083e-015
lhumerus -23.4073 -2.89129 89.9414
lradius 19.3071
lwrist 11.5067
lhand -24.9694 -7.36465
lfingers 7.12502
lthumb 1.54111 22.6095
rfemur -11.9575 -2.73681 20.5947
rtibia 20.657
rfoot -14.802 1.32416
rtoes 18.3331
lfemur -8.43382 7.37263 -17.7613
ltibia 16.6647
lfoot -11.2011 6.77803
ltoes 2.32422
486
root 0.291157 17.7501 -0.91102 7.92009 0.406679 -1.363
lowerback -3.89912 -0.641853 0.135428
upperback 2.3754 -0.924701 1.37178
thorax 4.66171 -0.478054 1.26918
lowerneck -11.8925 0.235514 -1.88056
upperneck 35.709 0.550084 0.840563
head 14.1802 0.0920348 0.758078
rclavicle 2.98177e-016 1.31198e-014
rhumerus -26.016 -15.5659 -80.5122
rradius 23.4217
rwrist 36.2217
rhand -22.5797 -27.2503
rfingers 7.12502
rthumb 3.84902 -57.1952
lclavicle 2.98177e-016 1.31198e-014
lhumerus -23.4511 -2.78352 89.9072
lradius 19.2292
lwrist 11.303
lhand -24.9562 -7.38255
lfingers 7.12502
lthumb 1.55385 22.5915
rfemur -11.9388 -2.71676 20.5872
rtibia 20.6673
rfoot -14.8035 1.31144
rtoes 18.3321
lfemur -8.41322 7.3803 -17.7625
ltibia 16.6756
lfoot -11.2157 6.78166
ltoes 2.22147
487
root 0.293489 17.7495 -0.915212 7.89249 0.397565 -1.37421
lowerback -3.90306 -0.645674 0.14539
upperback 2.37551 -0.930441 1.37186
thorax 4.66403 -0.480592 1.26317
lowerneck -11.9006 0.239456 -1.87819
upperneck 35.7295 0.554347 0.843118
head 14.1913 0.0942393 0.759539
rclavicle 4.37326e-015 9.93923e-016
rhumerus -26.0612 -15.5259 -80.4839
rradius 23.4342
rwrist 36.1507
rhand -22.5558 -27.2333
rfingers 7.12502
rthumb 3.87202 -57.1779
lclavicle 4.37326e-015 9.93923e-016
lhumerus -23.4953 -2.67353 89.8736
lradius 19.1482
lwrist 11.1031
lhand -24.9367 -7.41416
lfingers 7.12502
lthumb 1.57268 22.5598
rfemur -11.9295 -2.68947 20.5901
rtibia 20.6769
rfoot -14.8009 1.28892
rtoes 18.3142
lfemur -8.40358 7.38451 -17.7559
ltibia 16.6891
lfoot -11.2269 6.79167
ltoes 2.1273
488
root 0.296025 17.749 -0.919322 7.86758 0.388072 -1.38086
lowerback -3.90997 -0.64864 0.152907
upperback 2.37702 -0.93487 1.37025
thorax 4.66947 -0.482535 1.25687
lowerneck -11.913 0.242658 -1.87685
upperneck 35.7488 0.558184 0.845007
head 14.203 0.0960556 0.760863
rclavicle -7.85199e-015 1.78906e-014
rhumerus -26.0996 -15.4908 -80.4547
rradius 23.4394
rwrist 36.0859
rhand -22.5262 -27.2147
rfingers 7.12502
rthumb 3.90069 -57.1588
lclavicle -7.85199e-015 1.78906e-014
lhumerus -23.5339 -2.56665 89.8409
lradius 19.0637
lwrist 10.9113
lhand -24.9011 -7.40896
lfingers 7.12502
lthumb 1.60709 22.5647
rfemur -11.923 -2.66683 20.5874
rtibia 20.6868
rfoot -14.7977 1.27026
rtoes 18.2975
lfemur -8.39796 7.38636 -17.7566
ltibia 16.7054
lfoot -11.2392 6.80829
ltoes 2.0369
489
root 0.29878 17.7485 -0.923436 7.84618 0.375808 -1.38332
lowerback -3.91786 -0.649822 0.158717
upperback 2.37698 -0.936728 1.3669
thorax 4.67381 -0.483219 1.24992
lowerneck -11.9286 0.244392 -1.87802
upperneck 35.7712 0.560277 0.847943
head 14.2168 0.0969086 0.762845
rclavicle 2.08724e-015 -1.98785e-015
rhumerus -26.134 -15.474 -80.4204
rradius 23.434
rwrist 36.0421
rhand -22.4861 -27.2024
rfingers 7.12502
rthumb 3.93936 -57.1457
lclavicle 2.08724e-015 -1.98785e-015
lhumerus -23.5707 -2.46538 89.8103
lradius 18.9735
lwrist 10.7297
lhand -24.8765 -7.41369
lfingers 7.12502
lthumb 1.63086 22.5598
rfemur -11.9215 -2.64503 20.5791
rtibia 20.6979
rfoot -14.793 1.25436
rtoes 18.2834
lfemur -8.39629 7.38503 -17.7643
ltibia 16.7218
lfoot -11.2501 6.83494
ltoes 1.94584
490
root 0.301688 17.748 -0.927635 7.82866 0.361122 -1.39357
lowerback -3.92751 -0.648098 0.174213
upperback 2.37419 -0.93531 1.36469
thorax 4.67606 -0.481978 1.23896
lowerneck -11.9451 0.245713 -1.87719
upperneck 35.7988 0.561275 0.85091
head 14.2332 0.0975389 0.764374
rclavicle -1.26974e-014 8.15017e-015
rhumerus -26.1662 -15.487 -80.3776
rradius 23.4135
rwrist 36.0288
rhand -22.4422 -27.1911
rfingers 7.12502
rthumb 3.98178 -57.1336
lclavicle -1.26974e-014 8.15017e-015
lhumerus -23.6079 -2.37369 89.7817
lradius 18.8775
lwrist 10.5617
lhand -24.8465 -7.39116
lfingers 7.12502
lthumb 1.65981 22.5821
rfemur -11.9266 -2.62106 20.5788
rtibia 20.7121
rfoot -14.7898 1.2404
rtoes 18.2711
lfemur -8.39724 7.38021 -17.7652
ltibia 16.7343
lfoot -11.2581 6.87089
ltoes 1.8603
491
root 0.304844 17.7474 -0.931708 7.81039 0.343028 -1.40001
lowerback -3.93657 -0.64411 0.187761
upperback 2.36976 -0.930651 1.36078
thorax 4.6762 -0.479152 1.22759
lowerneck -11.9601 0.24629 -1.87688
upperneck 35.8318 0.56113 0.854453
head 14.2519 0.0976554 0.766107
rclavicle -1.75427e-014 1.19271e-014
rhumerus -26.1994 -15.5255 -80.3262
rradius 23.3815
rwrist 36.0445
rhand -22.3936 -27.1833
rfingers 7.12502
rthumb 4.02869 -57.1249
lclavicle -1.75427e-014 1.19271e-014
lhumerus -23.6513 -2.2843 89.7543
lradius 18.7808
lwrist 10.3985
lhand -24.8109 -7.34367
lfingers 7.12502
lthumb 1.69423 22.6293
rfemur -11.9318 -2.5998 20.5726
rtibia 20.7291
rfoot -14.7895 1.23379
rtoes 18.2604
lfemur -8.39449 7.37287 -17.772
ltibia 16.7443
lfoot -11.2662 6.91361
ltoes 1.78305
492
root 0.308259 17.7467 -0.935646 7.79038 0.323492 -1.40392
lowerback -3.94525 -0.639475 0.19968
upperback 2.36493 -0.925018 1.35674
thorax 4.67572 -0.475892 1.2171
lowerneck -11.9766 0.247607 -1.87488
upperneck 35.8728 0.562804 0.854911
head 14.2746 0.0983141 0.766642
rclavicle 5.96354e-015 -5.36719e-015
rhumerus -26.2303 -15.5851 -80.2672
rradius 23.3392
rwrist 36.0862
rhand -22.3405 -27.1843
rfingers 7.12502
rthumb 4.07992 -57.125
lclavicle 5.96354e-015 -5.36719e-015
lhumerus -23.6975 -2.20025 89.7293
lradius 18.681
lwrist 10.2488
lhand -24.7729 -7.28864
lfingers 7.12502
lthumb 1.73093 22.6841
rfemur -11.9357 -2.58607 20.5619
rtibia 20.7486
rfoot -14.7917 1.23849
rtoes 18.2597
lfemur -8.38729 7.36323 -17.7827
ltibia 16.7517
lfoot -11.2736 6.96101
ltoes 1.70718
493
root 0.311796 17.746 -0.939561 7.76823 0.304179 -1.40736
lowerback -3.95337 -0.633795 0.209774
upperback 2.35992 -0.917921 1.3538
thorax 4.67475 -0.471983 1.2089
lowerneck -11.9813 0.248056 -1.87748
upperneck 35.9106 0.563402 0.857653
head 14.2931 0.0982461 0.76868
rclavicle -1.11816e-015 1.78906e-015
rhumerus -26.2633 -15.6588 -80.2016
rradius 23.2911
rwrist 36.1444
rhand -22.2956 -27.1815
rfingers 7.12502
rthumb 4.12337 -57.1214
lclavicle -1.11816e-015 1.78906e-015
lhumerus -23.7476 -2.13279 89.7106
lradius 18.5823
lwrist 10.1225
lhand -24.7192 -7.22784
lfingers 7.12502
lthumb 1.78276 22.7445
rfemur -11.9385 -2.57796 20.5499
rtibia 20.7706
rfoot -14.7955 1.25015
rtoes 18.258
lfemur -8.37593 7.35169 -17.7941
ltibia 16.7574
lfoot -11.2813 7.0084
ltoes 1.64479
494
root 0.315481 17.7451 -0.943336 7.74392 0.285516 -1.40406
lowerback -3.96122 -0.629173 0.212178
upperback 2.35774 -0.911798 1.35042
thorax 4.67671 -0.468806 1.20447
lowerneck -11.9878 0.249817 -1.88214
upperneck 35.9488 0.56697 0.85935
head 14.3122 0.0990367 0.771129
rclavicle 1.46604e-015 1.19271e-014
rhumerus -26.2873 -15.7407 -80.1333
rradius 23.2356
rwrist 36.2143
rhand -22.2582 -27.1724
rfingers 7.12502
rthumb 4.15944 -57.1115
lclavicle 1.46604e-015 1.19271e-014
lhumerus -23.792 -2.06605 89.6928
lradius 18.4794
lwrist 10.0044
lhand -24.6577 -7.14156
lfingers 7.12502
lthumb 1.8422 22.8302
rfemur -11.939 -2.57337 20.5296
rtibia 20.7942
rfoot -14.8008 1.26618
rtoes 18.2627
lfemur -8.36159 7.34084 -17.8131
ltibia 16.7639
lfoot -11.2895 7.05302
ltoes 1.5899
